Patient4_TMGait_0pt6_01_right_27_EMG.mot
version=1
nRows=27
nColumns=33
inDegrees=no
endheader
time	1LAddLong	2LGlutMax	3LGlutMed	4LIliopsoas	5LSemiMemb	6LBicFemLong	7LRecFem	8LVastMed	9LVastLat	10LGasMed	11LTibAnt	12lTibPost	13LPeroneusLong	14LSol	15LExtDigLong	16LFlexDigLong	17RAddLong	18RGlutMax	19RGlutMed	20RIliopsoas	21RSemiMemb	22RBicFemLong	23RRecFem	24RVastMed	25RVastLat	26RGasMed	27RTibAnt	28RTibPost	29RPeroneusLong	30RSol	31RExtDigLong	32RFlexDigLong
33.1	-0.005493	0.20676	0.0914	0.016479	-0.059814	0.28427	0.024109	0.011749	-0.1152	0.007782	-0.087585	0	0.12238	-0.013428	-0.34973	-0.006866	0.025024	-0.31189	0.15259	0.20264	0.2861	0.11215	-0.069733	-0.027161	-0.019836	0.000763	0.20371	-0.002899	-0.12421	-0.26855	0.001678	-0.018005
33.101	-0.018158	0.13947	0.059204	0.021362	-0.04364	0.27954	-0.05661	0.022125	-0.045319	0.007324	-0.018311	0.005188	0.15076	0.017395	-0.29388	-0.005646	0.040283	-0.28091	0.12253	0.25452	0.26916	0.06073	-0.067139	-0.040894	-0.031433	0.012207	-0.17258	-0.001526	-0.15854	-0.27908	-0.000916	-0.016479
33.102	-0.019989	0.11688	0.016327	0.012817	-0.092926	0.27283	-0.10422	0.025482	-0.000305	-0.006104	-0.036163	0.006409	0.1358	0.014191	-0.29297	-0.00946	0.039825	-0.30991	-0.014343	0.11871	0.18997	0.12421	-0.093994	-0.033112	-0.000763	0.01709	-0.059509	-0.002747	-0.27451	-0.26718	0.003815	-0.012054
33.103	-0.030212	0.13367	-0.000153	0.006714	-0.10895	0.23041	-0.18005	0.014648	0.04776	-0.005798	-0.10544	0.001068	0.022583	-0.023193	-0.3421	-0.003357	0.032349	-0.28336	0.023193	-0.088654	0.12375	0.177	-0.097656	-0.015259	0.000458	0.014801	0.3894	-0.003967	-0.2507	-0.23468	-0.002136	-0.005493
33.104	-0.024719	0.15656	0.007782	-0.00824	-0.094299	0.10956	-0.103	0.017548	0.18463	0.009766	-0.082092	0.005646	0.009613	-0.11185	-0.21683	-0.013123	0.023804	-0.31754	0.049133	-0.063629	0.16556	0	-0.1294	-0.027618	0.001526	0.014648	0.23819	-0.003815	-0.21713	-0.044556	-0.000153	-0.002747
33.105	-0.021667	0.17761	0.023499	-0.006104	0.016937	0.11459	-0.005035	0.006714	0.37369	0.00824	0.004425	0.00824	0.078125	-0.13412	0.089111	-0.007782	0.007324	-0.25314	-0.012665	0.0177	0.046082	-0.088348	-0.16068	-0.03006	0.018005	0.008087	0.018311	-0.003357	-0.16525	0.046387	-0.00351	-0.014801
33.106	-0.031433	0.2504	0.01297	-0.003357	0.028229	0.23438	0.048676	0.010834	0.40665	0.023041	0.034637	0.010529	0.015717	-0.084229	0.19058	-0.007477	-0.017242	-0.19852	-0.10788	0.10971	-0.030975	-0.07431	-0.13794	-0.088806	-0.004578	0.019226	0.016785	-0.010071	-0.12817	0.056915	-0.005798	-0.004883
33.107	-0.029449	0.27313	-0.01709	0.015411	-0.020294	0.25971	0.11414	0.011902	0.30807	0.025635	0.032501	0.000153	0.014343	-0.043335	0.16556	-0.003815	-0.030212	-0.17364	-0.19318	0.032196	0.003357	-0.059814	-0.11383	-0.097351	-0.019989	0.005035	0.016785	-0.00473	-0.031891	-0.00061	-0.002136	-0.014038
33.108	-0.021057	0.30914	-0.000458	0.002747	0.010223	0.056458	0.18173	0.015717	0.072479	0.030365	-0.00473	0.007324	0.023041	-0.040283	0.13321	-0.011597	-0.028534	-0.23056	-0.070496	-0.14114	0.062866	-0.00946	-0.12726	-0.083771	-0.009918	0.008087	-0.058136	-0.001373	0.038147	-0.13077	0.000305	-0.005798
33.109	-0.017395	0.35477	-0.033417	0.018005	0.049286	-0.14832	0.1651	0.008545	-0.30579	0.026245	-0.005035	0.011139	0.036163	-0.021057	0.18433	-0.012817	-0.02655	-0.24689	0.22903	-0.16968	0.094604	-0.001068	-0.16892	0.016022	0.017395	0.011902	-0.052185	0.002899	0.019684	-0.11536	-0.001221	-0.01236
33.11	0.004272	0.37628	-0.027924	0.00824	0.083618	-0.25925	0.048981	0.001526	-0.44601	0.005493	0.006256	0.013885	0.067444	0.016937	0.21591	-0.005035	-0.029755	-0.21515	0.15335	-0.005798	-0.024872	0.00473	-0.17502	0.075226	0.031586	0.037384	-0.004272	0.003204	0.1207	-0.048828	-0.007172	-0.005493
33.111	0.031891	0.31845	-0.023041	-0.002441	0.10071	-0.33661	-0.063934	-0.003357	-0.36438	0.002899	-0.015869	0.00473	0.07843	0.044403	0.1442	-0.010223	-0.015564	-0.20004	-0.007477	0.097046	0.18875	-0.12619	-0.12299	0.006104	0.027618	0.018616	0.002594	-0.000916	0.22598	-0.075684	0.001373	-0.013733
33.112	0.036774	0.29251	-0.073242	0.014038	0.057068	-0.063324	-0.08194	-0.016022	-0.22324	-0.002441	-0.042114	0.011139	0.12253	0.06424	0.083923	-0.003967	0.022278	-0.11688	0.01358	0.095062	0.18982	-0.2388	-0.098419	-0.005188	0.017548	0.000458	-0.002136	-0.001068	0.10819	0.04837	0.000153	-0.010376
33.113	0.034943	0.23224	-0.10925	0.009308	0.068207	-0.12787	-0.11948	-0.012665	-0.13214	0.00412	-0.017395	0.018005	0.052948	0.059204	0.071869	0.005493	0.05127	-0.18707	-0.012512	0.14069	0.10086	-0.19424	-0.15991	0.063171	0.055695	0.005646	0.024261	-0.004425	-0.15091	0.016937	-0.001831	-0.016174
33.114	0.05249	0.22751	-0.15579	0.019684	0.0177	-0.26947	-0.14954	-0.005951	-0.12192	0.0354	-0.036926	0.016022	0.031586	0.061646	0.061646	0.001068	0.049438	-0.15778	-0.12711	0.070496	0.13275	-0.040588	-0.13489	0.10422	0.040131	-0.001678	0.044556	0.004883	-0.56992	-0.22232	0.00061	-0.0177
33.115	0.026703	0.27908	-0.12863	0.014343	-0.011749	-0.17487	-0.15274	-0.000153	-0.085144	0.039063	-0.038757	0.015106	0.040131	0.083771	0.033875	-0.005341	0.049591	-0.1622	-0.064392	-0.003357	0.25726	0.060425	-0.13825	0.12329	0.072327	0.005188	0.067444	0.012817	-0.42664	-0.43137	-0.000458	-0.015869
33.116	0.013123	0.29587	-0.1091	0.002899	-0.011292	-0.087585	-0.17822	0.014496	-0.075531	0.044098	-0.019684	0.017853	0.042114	0.10086	0.045166	-0.001221	0.043793	-0.16846	-0.046692	-0.066681	0.21194	0.13565	-0.10407	0.099182	0.071106	0.00061	0.12604	0.017395	-0.44983	-0.43076	-0.001678	-0.018311
33.117	0.009766	0.36972	-0.07431	-0.022583	-0.058594	-0.078125	-0.13809	0.010681	-0.058594	0.043335	-0.000916	0.016479	0.031891	0.088196	0.070496	-0.00351	0.040894	-0.15869	-0.068512	-0.055847	0.075836	0.28366	-0.1265	0.051117	0.061798	-0.016022	0.12405	0.011139	-0.13534	-0.36819	-0.006104	-0.011902
33.118	0.017395	0.3804	-0.065308	-0.016327	-0.030518	-0.13748	-0.11276	-0.00473	0.078888	0.028839	0.029602	0.019073	0.04837	0.11414	0.060425	0.006866	0.036316	-0.13382	-0.083771	-0.061951	0.10483	0.23636	-0.12863	0.10529	0.045319	-0.029755	0.074463	-0.058899	0.19989	-0.15579	-0.001678	-0.011139
33.119	0.01297	0.34347	-0.027161	-0.00412	-0.005188	-0.25528	-0.053253	0.001678	0.10071	0.02121	-0.019531	0.018616	0.09552	0.087891	0.058899	0.002747	0.025177	-0.068512	-0.10086	-0.011292	0.18784	0.060883	-0.073547	0.031281	0.045929	-0.035706	0.045166	-0.029449	0.383	0.35858	-0.002441	0.004578
33.12	0.009918	0.28885	0.015717	-0.002899	-0.001221	-0.19699	-0.026093	0.006561	0.13031	0.018311	0.04425	0.013733	0.04425	0.055847	0.10452	-0.011444	-0.010986	-0.08606	-0.028839	0.024414	0.18433	0.090637	-0.070648	0.002899	0.029755	-0.031128	0.083923	0.033722	0.28534	0.4187	-0.002899	-0.002441
33.121	0.017242	0.21988	-0.058441	0.018616	0.048218	0.076294	-0.040741	0.009308	0.11185	0.04715	0.051727	0.014038	-0.009003	0.07019	0.070343	-0.01358	-0.041351	-0.15411	-0.015411	-0.033569	0.17044	0.0737	-0.031128	0.027466	-0.001373	-0.010986	0.11566	-0.002136	0.22583	0.42328	-0.00351	-0.000305
33.122	0.010071	0.19775	-0.067444	0.032806	0.019684	0.43076	0.002747	0.014191	0.26504	0.033722	0.014648	0.011292	0.006714	0.10819	-0.012665	-0.006409	-0.05127	-0.1445	0.025635	-0.076294	0.1532	0.11322	-0.076294	0.004578	0.002747	-0.004578	0.06012	-0.016174	0.2562	1.0008	-0.002747	-0.007477
33.123	0.00885	0.19928	-0.091705	0.01297	0.035706	0.41946	-0.060577	0.013428	0.4155	0.037994	-0.067291	0.016937	-0.013123	0.081177	-0.062408	-0.001678	-0.048676	-0.095673	0.003052	-0.11398	0.15198	0.10895	-0.079193	0.009003	0.000305	-0.029144	-0.112	-0.006409	0.22659	1.2463	-0.001831	-0.000763
33.124	0.006866	0.15045	-0.041199	0.001831	0.11353	0.2269	-0.10803	0.013733	0.38849	0.043182	-0.035553	0.015869	-0.078735	0.11139	-0.097809	0.00473	-0.014038	-0.085754	0.031128	-0.11215	0.13336	0.078888	-0.041504	0.012207	-0.029297	-0.050201	-0.21149	0.004425	0.14313	0.94391	-0.00412	0.001831
33.125	0.022278	0.12848	0.084534	0.005035	0.045929	0.048676	-0.17425	0.005951	0.31052	0.043793	0.003967	0.014496	-0.055847	0.14069	-0.13199	0.017242	0.029907	-0.089874	-0.007477	-0.036316	0.13855	0.15488	-0.044861	-0.000763	-0.026245	-0.034943	-0.13153	0.017395	0.001984	-0.1561	-0.00473	-0.002441
33.126	0.048218	0.16739	0.11612	0.032349	0.057526	0.12604	-0.16373	0.001221	0.33203	0.037079	0.032806	0.011139	0.066986	0.15152	-0.18738	0.001831	0.042572	-0.16617	0.036163	0.032196	0.15274	0.31448	-0.028534	-0.025177	-0.05188	-0.020905	-0.048676	0.012054	-0.098114	-0.7251	-0.003357	-0.002289
